<svg width="1200" height="2216" viewBox="0 0 1200 2216" fill="none" xmlns="http://www.w3.org/2000/svg">
<path d="M174.751 644.748C174.495 644.525 174.239 644.302 173.983 644.079C145.154 670.417 108.548 688.093 78.1885 713.325C64.8189 724.306 51.7416 736.071 42.9241 751.298C33.2918 765.885 35.235 787.844 49.234 799.992C76.3039 824.458 112.377 833.377 146.832 842.492C192.651 854.011 236.281 875.505 274.235 904.312C292.999 918.892 310.921 935.43 322.968 955.942C328.743 966.046 333.079 977.938 330.951 989.305C328.911 1000.82 319.806 1009.25 309.52 1014.32C256.749 1037.64 199.031 1050.24 144.34 1069.7C116.888 1079.42 89.4537 1089.33 65.0295 1105.16C53.5254 1113.17 39.7786 1123.77 41.7105 1139.74C44.746 1154.96 59.1902 1164.25 71.7223 1171.88C120.393 1200.46 169.516 1227.26 217.672 1256.59C261.898 1285.5 325.071 1319.63 317.495 1379.36C293.339 1463.84 140.6 1434.89 151.099 1538.8C160.707 1583.33 209.794 1598.21 247.653 1611C267.051 1617.98 288.714 1623.95 302.346 1640.19C316.105 1657.54 307.773 1680.35 298.547 1697.92C253.323 1764.54 177.606 1802.59 123.425 1862.15C97.2601 1890.46 69.1643 1929.88 85.2431 1970.96C101.84 2010.22 141.312 2032.48 177.73 2051.04C214.467 2068.97 252.459 2082.4 292.158 2094.67C292.245 2094.35 292.332 2094.03 292.42 2093.72C252.754 2081.45 214.801 2068.03 178.145 2050.15C141.8 2031.65 102.507 2009.35 86.1753 1970.63C70.3125 1930.24 98.0338 1891.1 124.171 1862.84C178.242 1803.36 253.837 1765.53 299.436 1698.41C308.675 1680.78 317.313 1657.58 303.126 1639.6C289.096 1622.94 267.359 1617.07 247.944 1610.06C209.992 1597.26 161.466 1582.41 152.075 1538.61C141.203 1436.39 293.352 1465.24 318.488 1379.52C326.05 1318.83 262.348 1284.69 218.174 1255.74C169.976 1226.39 120.865 1199.6 72.2037 1171.03C59.7323 1163.47 45.5283 1154.13 42.6996 1139.63C40.7889 1124.51 54.1416 1113.93 65.6088 1105.99C89.8661 1090.27 117.281 1080.35 144.7 1070.64C199.366 1051.19 256.976 1038.64 309.997 1015.22C320.417 1010.08 329.824 1001.44 331.935 989.525C334.123 977.78 329.664 965.684 323.833 955.472C311.653 934.744 293.657 918.167 274.827 903.529C236.742 874.626 193.022 853.086 147.037 841.523C112.657 832.449 76.5905 823.43 49.9291 799.3C36.2173 787.3 34.3558 766.267 43.8014 751.812C52.4935 736.79 65.5089 725.05 78.8369 714.11C109.15 688.904 145.559 671.413 174.751 644.748Z" fill="#99090A"/>
<path d="M174 644.5C263.048 588.327 452.149 455.559 496.172 373.863C551.202 271.744 550.039 191.831 634 105C751 -16 833 42.5 899.5 105C966.033 167.531 1196 93 1180.5 -20" stroke="#99090A"/>
</svg>
