<svg width="60" height="60" viewBox="0 0 60 60" fill="none" xmlns="http://www.w3.org/2000/svg">
<path d="M51.553 46.1858C51.4218 43.2561 50.4327 41.353 48.6421 39.703C44.1702 35.5733 38.7796 31.6311 33.8155 28.1015C31.514 26.4655 28.9546 24.3046 26.2874 23.3061C22.528 21.8952 18.2811 22.3968 14.2546 22.9686C12.4968 23.2171 10.7296 23.4983 8.99521 23.9061C6.98896 24.3843 4.60771 24.9515 2.90615 26.1561C1.37802 27.239 1.56552 28.5936 2.31552 29.8499C2.42802 30.4265 2.32021 30.9749 2.3249 31.5608C2.33427 32.6671 2.20771 33.7733 1.94052 34.8421C1.77177 35.503 1.54208 36.1405 1.32646 36.7874C0.468645 39.2905 2.83583 41.3905 4.58896 42.839C5.57333 43.6499 6.62333 44.3811 7.6124 45.1874C11.4561 48.314 15.3936 51.1405 19.3265 54.1171C23.9343 57.6093 25.6921 58.8233 31.4436 56.8593C32.9952 56.3296 34.5843 55.9077 36.1733 55.4999C38.4233 54.9233 41.414 54.3749 43.603 53.6061C45.8202 52.828 48.6843 51.7968 50.3108 50.0202C51.1265 49.1343 51.4733 47.864 51.478 46.6827C51.5343 46.5374 51.5624 46.378 51.553 46.1858Z" fill="white"/>
<path d="M6.26713 27.2905C8.47963 26.3577 17.1749 25.0077 19.0921 24.7874C20.7187 24.5999 22.7671 24.3374 24.3796 24.5765C25.0312 24.6843 27.1218 25.7765 29.2921 27.253C33.7312 30.2718 45.4406 39.0515 46.1812 39.7312C46.3781 39.914 47.9859 41.4468 47.1749 41.4374C46.3546 41.428 45.5343 41.4843 44.7234 41.578C43.3359 41.7421 35.2406 43.6687 31.5656 44.5687C30.839 44.7468 28.8703 45.1124 28.3265 45.2202C26.789 45.5343 25.5281 45.0421 24.2718 44.1609C21.6515 42.3327 5.34838 29.7702 4.92182 28.8843C4.61244 28.2562 5.23588 27.7265 6.26713 27.2905Z" fill="#355DFA"/>
<path d="M51.9517 43.111C51.4455 41.7797 50.2455 40.725 49.1627 39.7219C44.208 35.1469 39.0002 31.4063 33.5439 27.4688C32.1423 26.4563 30.7689 25.4813 29.3111 24.5485C28.5892 24.0891 27.6939 23.7 26.9252 23.3157C24.3845 22.0453 21.7408 22.1391 18.9939 22.4532C13.9923 23.025 9.15953 23.1938 4.35953 24.8344C3.0236 25.2938 1.71578 25.9313 1.40641 27.5391C1.28453 28.1907 1.64547 29.2922 1.87985 29.8828C2.06266 30.3328 0.525159 35.9672 0.295471 36.6422C-0.276404 38.325 0.548596 39.8344 1.69703 41.0953C2.32516 41.7891 20.0158 55.425 20.4611 55.7485C22.1486 56.9907 23.4845 57.8391 24.9142 58.2516C26.7236 58.7719 28.6783 58.575 31.6783 57.5532C32.883 57.1407 42.5814 54.736 47.9767 52.6032C49.8142 51.8766 50.8689 50.9016 51.3002 50.4282C51.8252 49.8563 52.1627 49.1297 52.3455 48.3657C52.458 47.9016 52.5142 47.4188 52.5189 46.95C52.5658 46.8047 52.3173 44.0719 51.9517 43.111ZM6.26735 27.2907C8.47985 26.3578 17.1752 25.0078 19.0923 24.7875C20.7189 24.6 22.7673 24.3375 24.3798 24.5766C25.0314 24.6844 27.122 25.7766 29.2923 27.2532C33.7314 30.2719 45.4408 39.0516 46.1814 39.7313C46.3783 39.9141 47.9861 41.4469 47.1752 41.4375C46.3548 41.4282 45.5345 41.4844 44.7236 41.5782C43.3361 41.7422 35.2408 43.6688 31.5658 44.5688C30.8392 44.7469 28.8705 45.1125 28.3267 45.2203C26.7892 45.5344 25.5283 45.0422 24.272 44.161C21.6517 42.3328 5.3486 29.7703 4.92203 28.8844C4.61266 28.2563 5.2361 27.7266 6.26735 27.2907ZM4.40172 40.3078C3.94703 39.8485 2.1611 38.6672 2.6486 37.1766C3.1736 35.5641 3.67516 32.9532 3.78766 31.2328C5.80328 32.85 24.572 47.175 25.7345 47.5078C26.4611 49.7672 26.4705 52.3032 25.6642 54.5391C25.5517 54.8485 25.4627 55.1485 25.3314 55.4485C24.8158 55.2563 24.3095 54.9844 23.7658 54.6516C22.8939 54.1078 5.92047 41.8407 4.40172 40.3078ZM48.1548 49.7063C46.4673 50.911 43.922 51.3938 42.2533 51.886C38.6814 52.9453 35.0767 53.911 31.4673 54.8297C30.3939 55.1016 29.3064 55.4297 28.2095 55.6125C28.4111 55.1672 28.5845 54.7078 28.7064 54.225C29.0298 52.95 29.0908 51.5813 28.9502 50.2735C28.8752 49.6032 28.8517 48.3797 28.6923 47.7328C28.8798 47.7188 33.3002 46.6735 36.7923 45.7828C40.3455 44.8782 44.4658 43.6266 46.9361 43.575C47.6743 43.5636 48.3929 43.8125 48.9658 44.2782C49.8283 44.986 50.0252 46.2938 49.8095 47.3344C49.608 48.3563 48.9845 49.1157 48.1548 49.7063Z" fill="#2F2F2F"/>
<path d="M11.1846 37.2936C13.8658 39.3514 20.8689 44.6998 24.0846 47.1561C25.1064 47.9342 26.2549 48.7404 28.5846 48.3186C30.9143 47.8967 45.4455 44.1279 45.4455 44.1279C46.7721 43.7811 48.2393 43.6873 49.5986 43.8701C50.0908 43.9357 50.5736 44.0904 51.0143 44.3248C51.1689 44.4092 51.333 44.4936 51.4736 44.6061C51.5486 44.667 51.6002 44.7467 51.6799 44.8029C52.7533 45.5295 52.0971 43.3498 51.9752 43.0545C51.6799 42.3373 51.2721 41.667 50.8033 41.0482C50.4265 40.5596 50.0094 40.1033 49.5564 39.6842C44.6064 35.1139 39.1314 31.1576 33.6752 27.2201C32.2736 26.2076 30.8908 25.1576 29.433 24.2248C28.7111 23.7654 27.9799 23.3107 27.2158 22.9264C24.6705 21.6561 21.8252 21.7826 19.0783 22.0967C14.0768 22.6686 9.07519 22.9498 4.27519 24.5951C2.93457 25.0545 1.31738 25.9123 1.01738 27.5295C0.895504 28.1811 0.895504 29.3154 2.04394 30.3326C2.87832 31.0732 7.65019 34.5795 11.1846 37.2936Z" fill="#355DFA"/>
<path d="M58.9263 33.7312C58.7951 30.8015 57.806 28.8984 56.0154 27.2484C51.5435 23.1187 46.1529 19.1766 41.1842 15.6469C38.8826 14.0109 36.3232 11.85 33.656 10.8515C29.8967 9.44061 25.6498 9.94217 21.6185 10.514C19.8607 10.7625 18.0935 11.0437 16.3638 11.4515C14.3576 11.925 11.9717 12.4969 10.2701 13.7015C8.74197 14.7844 8.92947 16.1437 9.67947 17.3953C9.79197 17.9719 9.68416 18.5203 9.68884 19.1062C9.69822 20.2125 9.57166 21.3187 9.30447 22.3875C9.13572 23.0484 8.90603 23.6859 8.69041 24.3328C7.83728 26.8359 10.2045 28.9312 11.9623 30.3844C12.9467 31.1953 13.9967 31.9266 14.9857 32.7328C18.8248 35.8594 22.767 38.6859 26.6951 41.6625C31.3029 45.1547 33.0607 46.3687 38.8123 44.4047C40.3638 43.875 41.9529 43.4531 43.542 43.0453C45.792 42.4687 48.7779 41.9203 50.9717 41.1516C53.1888 40.3734 56.0529 39.3422 57.6795 37.5656C58.4904 36.6797 58.842 35.4094 58.8513 34.2281C58.9076 34.0828 58.9357 33.9187 58.9263 33.7312Z" fill="white"/>
<path d="M13.6404 14.836C15.8529 13.9031 24.5435 12.5531 26.4654 12.3328C28.0919 12.1453 30.1357 11.8828 31.7529 12.1219C32.4044 12.2297 34.4951 13.3219 36.6654 14.7985C41.1044 17.8172 52.8138 26.5969 53.5498 27.2766C53.7466 27.4594 55.3591 28.9922 54.5482 28.9828C53.7279 28.9735 52.9123 29.0297 52.0966 29.1235C50.7138 29.2875 42.6138 31.2141 38.9388 32.1141C38.2123 32.2922 36.2435 32.6578 35.6998 32.7656C34.1623 33.0797 32.9013 32.5875 31.6404 31.7063C29.0201 29.8781 12.7169 17.3156 12.2904 16.4297C11.9857 15.8016 12.6091 15.2719 13.6404 14.836Z" fill="#355DFA"/>
<path d="M59.3248 31.5845C58.8185 30.2486 57.6185 29.1939 56.5357 28.1954C51.5857 23.6251 46.3779 19.8798 40.917 15.947C39.5107 14.9345 38.142 13.9595 36.6841 13.0314C35.9576 12.572 35.067 12.1829 34.2982 11.7986C31.7482 10.5283 29.1138 10.622 26.3623 10.9361C21.3654 11.5079 16.5326 11.6767 11.7326 13.322C10.3966 13.7814 9.08414 14.4142 8.77945 16.0267C8.65758 16.6783 9.01383 17.7798 9.25289 18.3704C9.4357 18.8204 7.89821 24.4548 7.66852 25.1251C7.09664 26.8079 7.92164 28.3173 9.07008 29.5829C9.69821 30.2767 27.3888 43.9126 27.8341 44.2361C29.5216 45.4736 30.8576 46.3267 32.2873 46.7345C34.092 47.2501 36.0513 47.0579 39.0513 46.0361C40.256 45.6236 49.9545 43.2189 55.3498 41.0908C57.1873 40.3642 58.242 39.3845 58.6732 38.9158C59.1982 38.3439 59.5357 37.6173 59.7232 36.8533C59.8357 36.3892 59.892 35.9064 59.8966 35.4376C59.9388 35.2783 59.6904 32.5454 59.3248 31.5845ZM13.6404 15.7642C15.8529 14.8314 24.5435 13.4861 26.4654 13.2611C28.092 13.0689 30.1357 12.8111 31.7529 13.0501C32.4045 13.1579 34.4951 14.2501 36.6654 15.7267C41.1045 18.7454 52.8138 27.5251 53.5498 28.2048C53.7466 28.3876 55.3591 29.9204 54.5482 29.9111C53.7279 29.9017 52.9123 29.9533 52.0966 30.0517C50.7138 30.2158 42.6138 32.147 38.9388 33.0423C38.2123 33.2204 36.2435 33.5814 35.6998 33.6939C34.1623 34.0079 32.9013 33.5158 31.6404 32.6392C29.0201 30.8111 12.717 18.2486 12.2904 17.3626C11.9857 16.7298 12.6091 16.2001 13.6404 15.7642ZM11.7748 28.7814C11.3201 28.322 9.53414 27.1454 10.0216 25.6501C10.5466 24.0376 11.0482 21.4314 11.156 19.7064C13.1716 21.3189 31.9404 35.6486 33.1029 35.9814C33.8295 38.2408 33.8388 40.7767 33.0326 43.0079C32.9201 43.3173 32.831 43.622 32.6998 43.9173C32.1841 43.7251 31.6779 43.4533 31.1341 43.1204C30.267 42.5814 13.2935 30.3142 11.7748 28.7814ZM55.5279 38.1798C53.8404 39.3798 51.2951 39.8673 49.631 40.3642C46.0591 41.4236 42.4545 42.3845 38.8451 43.3079C37.767 43.5845 36.6841 43.9079 35.5873 44.0908C35.7888 43.6454 35.9576 43.1861 36.0841 42.7033C36.4076 41.4236 36.4685 40.0595 36.3326 38.7517C36.2576 38.0814 36.2295 36.8626 36.0701 36.2111C36.2576 36.197 40.6779 35.1517 44.1701 34.2611C47.7232 33.3564 51.8388 32.1048 54.3185 32.0533C55.2982 32.0345 56.0201 32.4892 56.3435 32.7564C57.206 33.4642 57.4076 34.772 57.192 35.8126C56.981 36.8298 56.3576 37.5892 55.5279 38.1798Z" fill="#2F2F2F"/>
<path d="M18.5579 24.839C21.2392 26.8968 28.2423 32.2452 31.4626 34.7015C32.4845 35.4843 33.6329 36.2858 35.9579 35.864C38.2829 35.4421 52.8188 31.6733 52.8188 31.6733C54.1741 31.3232 55.5838 31.2357 56.972 31.4155C57.4688 31.4812 57.9517 31.6358 58.3876 31.8702C58.5423 31.9546 58.7063 32.039 58.847 32.1515C58.922 32.2124 58.9735 32.2921 59.0532 32.3437C60.1267 33.0702 59.4657 30.8952 59.3438 30.5952C59.0485 29.878 58.6407 29.2077 58.172 28.589C57.7951 28.1003 57.378 27.644 56.9251 27.2249C51.9751 22.6593 46.5048 18.703 41.0438 14.7655C39.6376 13.753 38.2595 12.703 36.8017 11.7702C36.0798 11.3108 35.3485 10.8562 34.5845 10.4718C32.0392 9.20147 29.1938 9.32803 26.447 9.6421C21.4454 10.214 16.4438 10.4952 11.6438 12.1405C10.3032 12.5999 8.69072 13.4624 8.38603 15.0749C8.26416 15.7265 8.26416 16.8608 9.41259 17.878C10.2517 18.6187 15.0235 22.1249 18.5579 24.839Z" fill="#006CA2"/>
<path d="M54.3424 25.7625C54.2111 22.8328 53.2267 20.9297 51.4314 19.2797C46.9595 15.15 41.5689 11.2078 36.6049 7.67811C34.3033 6.04217 31.7439 3.88124 29.0767 2.8828C25.3174 1.47186 21.0658 1.97342 17.0439 2.5453C15.2814 2.79374 13.5142 3.07499 11.7845 3.4828C9.7783 3.96092 7.39236 4.52811 5.6908 5.7328C4.16267 6.81561 4.35017 8.17499 5.10017 9.42655C5.20798 10.0031 5.10486 10.5515 5.10955 11.1375C5.11892 12.2437 4.99236 13.35 4.72048 14.4187C4.55642 15.0797 4.32673 15.7172 4.10642 16.364C3.2533 18.8672 5.62048 20.9625 7.3783 22.4156C8.36267 23.2265 9.41267 23.9578 10.4017 24.7641C14.2408 27.8906 18.183 30.7172 22.1111 33.6937C26.7189 37.1859 28.4814 38.4 34.233 36.4359C35.7845 35.9062 37.3689 35.4844 38.9627 35.0766C41.2127 34.5 44.1986 33.9516 46.3877 33.1828C48.6095 32.4047 51.4689 31.3734 53.1002 29.5969C53.9111 28.7109 54.2627 27.4406 54.272 26.2594C54.3236 26.114 54.3517 25.95 54.3424 25.7625Z" fill="white"/>
<path d="M9.05644 6.86721C11.2689 5.93439 19.9643 4.58439 21.8814 4.36408C23.508 4.17658 25.5564 3.91408 27.1689 4.15314C27.8158 4.26096 29.9111 5.35314 32.0814 6.82971C36.5205 9.84846 48.2299 18.6281 48.9658 19.3078C49.1627 19.4906 50.7705 21.0235 49.9596 21.0141C49.1393 21.0047 48.3236 21.061 47.508 21.1547C46.1205 21.3188 38.0252 23.2453 34.3502 24.1453C33.6236 24.3235 31.6549 24.6891 31.1111 24.7969C29.5736 25.111 28.3127 24.6188 27.0518 23.7375C24.4314 21.9094 8.12832 9.34689 7.70175 8.46096C7.40644 7.82814 8.02519 7.29846 9.05644 6.86721Z" fill="#355DFA"/>
<path d="M54.7408 22.6829C54.2345 21.3517 53.0392 20.297 51.9517 19.2939C47.0017 14.7236 41.7939 10.9829 36.333 7.04544C34.9314 6.03294 33.558 5.05794 32.1002 4.12513C31.3783 3.66576 30.483 3.27669 29.7142 2.89232C27.1689 1.62201 24.5298 1.71576 21.783 2.02982C16.7814 2.60169 11.9533 2.77044 7.1486 4.41576C5.81266 4.87513 4.50016 5.50794 4.19547 7.12044C4.0736 7.77201 4.42985 8.87357 4.66891 9.46419C4.85172 9.91419 3.30953 15.5486 3.08453 16.2236C2.51266 17.9064 3.33766 19.4158 4.4861 20.6767C5.11422 21.3704 22.8048 35.0064 23.2502 35.3298C24.9377 36.572 26.2736 37.4204 27.7033 37.8283C29.508 38.3486 31.4673 38.1517 34.4673 37.1298C35.6767 36.7173 45.3705 34.3126 50.7658 32.1798C52.6033 31.4533 53.658 30.4783 54.0892 30.0048C54.6142 29.4329 54.9517 28.7064 55.1392 27.9423C55.2517 27.4783 55.3033 26.9954 55.3127 26.5267C55.3548 26.3814 55.1064 23.6486 54.7408 22.6829ZM9.05641 6.86732C11.2689 5.93451 19.9642 4.58451 21.8814 4.36419C23.508 4.17669 25.5564 3.91419 27.1689 4.15326C27.8158 4.26107 29.9111 5.35326 32.0814 6.82982C36.5205 9.84857 48.2298 18.6283 48.9658 19.3079C49.1627 19.4908 50.7705 21.0236 49.9595 21.0142C49.1392 21.0048 48.3236 21.0611 47.508 21.1548C46.1205 21.3189 38.0252 23.2454 34.3502 24.1454C33.6236 24.3236 31.6548 24.6892 31.1111 24.797C29.5736 25.1111 28.3127 24.6189 27.0517 23.7376C24.4314 21.9095 8.12828 9.34701 7.70172 8.46107C7.40641 7.82826 8.02516 7.29857 9.05641 6.86732ZM7.19078 19.8845C6.7361 19.4251 4.95016 18.2439 5.43766 16.7533C5.96266 15.1408 6.46422 12.5298 6.57672 10.8095C8.58766 12.4267 27.3564 26.7517 28.5236 27.0845C29.2502 29.3439 29.2595 31.8798 28.4533 34.1158C28.3408 34.4251 28.2517 34.7251 28.1205 35.0251C27.6002 34.8329 27.0986 34.5611 26.5548 34.2283C25.6877 33.6845 8.70953 21.4126 7.19078 19.8845ZM50.9486 29.2783C49.2564 30.4783 46.7158 30.9658 45.047 31.4579C41.4752 32.5173 37.8705 33.4829 34.2611 34.4017C33.1877 34.6736 32.1002 35.0017 31.0033 35.1845C31.2048 34.7392 31.3783 34.2798 31.5002 33.797C31.8236 32.522 31.8845 31.1533 31.7439 29.8454C31.6689 29.1751 31.6455 27.9517 31.4861 27.3001C31.6736 27.2861 36.0939 26.2408 39.5861 25.3548C43.1392 24.4501 47.2595 23.1986 49.7345 23.147C50.4727 23.1355 51.1913 23.3845 51.7642 23.8501C52.6267 24.5579 52.8236 25.8658 52.608 26.9064C52.397 27.9283 51.7736 28.6923 50.9486 29.2783Z" fill="#2F2F2F"/>
<path d="M13.9734 16.8655C16.6594 18.9233 23.6578 24.2718 26.8781 26.728C27.9 27.5108 29.0484 28.3124 31.3734 27.8905C33.6984 27.4687 48.2344 23.6999 48.2344 23.6999C49.5609 23.353 51.0281 23.2593 52.3875 23.4421C52.8797 23.5077 53.3625 23.6624 53.8031 23.8968C53.9578 23.9812 54.1219 24.0655 54.2625 24.178C54.3375 24.239 54.3891 24.3187 54.4687 24.3749C55.5422 25.1015 54.8812 22.9218 54.7594 22.6265C54.4641 21.9093 54.0562 21.239 53.5875 20.6202C53.2125 20.1327 52.7953 19.678 52.3453 19.2562C47.3953 14.6858 41.9203 10.7296 36.4641 6.7921C35.0625 5.7796 33.6797 4.7296 32.2172 3.79678C31.4953 3.3421 30.7687 2.88741 30 2.50303C27.4547 1.23272 24.6094 1.35928 21.8625 1.67335C16.8609 2.24991 11.8641 2.53116 7.06406 4.17178C5.72343 4.63116 4.10625 5.49366 3.80156 7.10616C3.67968 7.75772 3.67968 8.8921 4.82812 9.90928C5.66718 10.6499 10.4391 14.1562 13.9734 16.8655Z" fill="#99090A"/>
<path d="M18.5858 11.5029C18.1779 11.4561 17.7842 11.3389 17.4092 11.1186C16.6545 10.6732 15.8061 10.017 15.3326 9.32324C14.7748 8.50761 15.4264 8.20761 16.2467 8.00136C17.3811 7.72011 18.5483 7.5373 19.7154 7.38261C20.9154 7.22324 22.1436 7.12949 23.3436 6.97011C24.2623 6.84355 25.2045 6.75918 26.1139 6.67011C26.6623 6.62324 27.2436 6.52949 27.7826 6.69824C28.3358 6.87168 28.8326 7.25605 29.2545 7.61699C29.7233 8.02011 30.2295 8.39043 30.6186 8.86386C30.7264 8.9998 30.8483 9.12636 30.8858 9.2998C30.9092 9.40293 30.9186 9.46855 30.8623 9.55761C30.7076 9.78261 30.2904 9.9373 30.0279 9.96543C28.5748 10.1295 27.2014 10.5373 25.7717 10.7951C24.5108 11.0201 23.2029 11.0764 21.9279 11.2264C21.2764 11.3061 20.6201 11.3529 19.9639 11.4186C19.5045 11.4701 19.0545 11.5592 18.5858 11.5029Z" fill="white"/>
</svg>
