<svg width="46" height="46" viewBox="0 0 46 46" fill="none" xmlns="http://www.w3.org/2000/svg">
<path d="M43.8533 19.9526C41.9048 21.5806 39.3904 22.3697 36.8611 22.1469C34.3318 21.9242 31.994 20.7078 30.36 18.7643C26.9483 14.7009 27.485 8.6251 31.5292 5.27094L32.5067 4.5426C30.9208 6.26212 30.0151 8.50009 29.9587 10.8386C29.9023 13.177 30.699 15.4561 32.2 17.2501C35.3242 20.9684 40.7292 21.6968 44.735 19.1093L43.8533 19.9526ZM40.4417 27.7918C38.9986 29.0086 37.3294 29.9285 35.5299 30.4987C33.7304 31.0688 31.836 31.2779 29.9554 31.1141C28.0749 30.9503 26.2452 30.4167 24.5714 29.5439C22.8976 28.6712 21.4126 27.4765 20.2017 26.0284C15.0842 19.9526 15.8892 10.8868 21.965 5.7501L23.7283 4.52344C21.4515 7.10253 20.1759 10.4132 20.1337 13.8532C20.0915 17.2933 21.2854 20.6343 23.4983 23.2684C28.1367 28.7501 36.0333 29.9576 41.9942 26.2968L40.4417 27.7918ZM38.2758 37.1451C29.7658 44.2943 17.0583 43.1826 9.90918 34.6534C2.77918 26.1434 3.89084 13.4168 12.4008 6.30594L14.5283 4.79177C7.80084 12.0751 7.37918 23.4409 13.9533 31.2801C20.5275 39.1001 31.7975 40.6718 40.1733 35.3243L38.2758 37.1451Z" fill="#355DFA"/>
</svg>
