<svg width="40" height="40" viewBox="0 0 40 40" fill="none" xmlns="http://www.w3.org/2000/svg">
<g clip-path="url(#clip0_147_10)">
<path d="M0.833344 20.0002C0.833344 10.9656 0.833344 6.4463 3.63975 3.6399C6.44615 0.833496 10.9634 0.833496 20 0.833496C29.0346 0.833496 33.5539 0.833496 36.3603 3.6399C39.1667 6.4463 39.1667 10.9636 39.1667 20.0002C39.1667 29.0347 39.1667 33.554 36.3603 36.3604C33.5539 39.1668 29.0366 39.1668 20 39.1668C10.9654 39.1668 6.44615 39.1668 3.63975 36.3604C0.833344 33.554 0.833344 29.0367 0.833344 20.0002Z" stroke="#355DFA" stroke-width="1.5" stroke-linejoin="round"/>
<path d="M22.0176 28.0705L20.2704 22.4214M20.2704 22.4214L18.8097 17.6983C17.6193 13.8529 17.0241 11.9302 15.9649 11.9302C14.9057 11.9302 14.3105 13.8529 13.1202 17.6983L11.6595 22.4214M20.2704 22.4214H11.6595M9.91229 28.0705L11.6595 22.4214M28.0702 28.0705V17.9828M28.0702 12.9389V11.9302" stroke="#355DFA" stroke-width="1.5" stroke-linecap="round" stroke-linejoin="round"/>
</g>
<defs>
<clipPath id="clip0_147_10">
<rect width="40" height="40" fill="white"/>
</clipPath>
</defs>
</svg>
