<svg width="46" height="46" viewBox="0 0 46 46" fill="none" xmlns="http://www.w3.org/2000/svg">
<path d="M23.2458 26.8813C22.5544 27.199 21.7968 27.613 20.2803 28.4453C19.7053 28.7687 19.1044 29.0922 18.5452 29.3969C18.5064 29.3581 18.4661 29.3092 18.4273 29.269C15.4273 26.0634 9.8785 23.7993 10.1143 19.494C10.2019 17.9257 10.741 13.8087 20.7704 8.80906C29.0246 4.74094 35.5925 5.86794 36.7267 8.36775C38.3568 11.9313 33.2063 18.5625 24.6819 19.5242C23.7384 19.7154 22.7641 19.6923 21.8308 19.4564C20.8975 19.2205 20.0291 18.778 19.2898 18.1614C18.8384 17.6712 18.7709 17.6425 18.6041 17.7402C18.3296 17.884 18.5064 18.3282 18.6041 18.5826C18.9293 19.1713 19.3692 19.6889 19.8978 20.1047C20.4264 20.5205 21.0331 20.8261 21.6818 21.0034C25.0364 21.7284 28.5339 21.382 31.6811 20.0129C36.8474 18.0134 40.8811 12.4546 39.6994 7.79419C38.5135 3.06912 30.6705 1.51087 23.2501 4.14725C18.6031 5.71325 14.3096 8.17844 10.6145 11.4023C6.52625 15.2261 5.87938 18.5496 6.14388 19.9411C7.0955 24.8817 13.9064 28.0974 16.6376 30.4794C16.4958 30.556 16.3717 30.6246 16.2653 30.6849C14.9026 31.362 9.70744 34.0774 8.41225 36.9496C6.94169 40.2041 8.648 42.5371 9.775 42.8505C11.4734 43.2578 13.2566 43.1242 14.8754 42.4686C16.4942 41.8129 17.8677 40.6679 18.8039 39.1935C19.5993 37.9712 20.0877 36.5748 20.2276 35.1232C20.3675 33.6716 20.1547 32.2077 19.6075 30.856C19.9302 30.5983 20.2746 30.3689 20.6368 30.1703C21.3325 29.7592 21.9952 29.3538 22.5831 29.0404C24.5966 28.0987 26.7931 27.6132 29.0159 27.6187C33.6821 28.1679 34.6035 31.0788 34.4267 32.305C34.3437 32.7399 34.1687 33.1521 33.9133 33.5138C33.6579 33.8756 33.3281 34.1785 32.9461 34.4023C32.6226 34.6079 32.5148 34.6769 32.5436 34.8235C32.5824 35.0391 32.7391 35.0291 33.0136 34.9902C33.7147 34.7687 34.3323 34.3402 34.7854 33.7612C35.2385 33.1821 35.5058 32.4796 35.5523 31.7458C35.696 28.8708 32.9547 25.7169 28.1017 25.7457C26.6487 25.7499 25.2104 26.0365 23.8668 26.5895C23.6512 26.6786 23.4418 26.7745 23.2386 26.877L23.2458 26.8813ZM16.3099 38.1499C14.7603 39.8361 12.604 40.4729 11.6725 39.9338C10.6663 39.3588 11.0644 36.8647 12.9663 35.0808C14.0917 34.0648 15.3092 33.1557 16.6031 32.3654C16.8288 32.2216 17.1623 32.0319 17.5634 31.7904L17.6712 31.7314L17.9069 31.5877C18.2458 32.7249 18.2765 33.9318 17.9959 35.0848C17.7153 36.2378 17.1335 37.2955 16.3099 38.1499Z" fill="#355DFA"/>
</svg>
