<svg width="40" height="40" viewBox="0 0 40 40" fill="none" xmlns="http://www.w3.org/2000/svg">
<g clip-path="url(#clip0_147_20)">
<path d="M39.1667 9.35201V30.6483C39.1667 32.9076 38.2692 35.0743 36.6717 36.6718C35.0741 38.2693 32.9074 39.1668 30.6482 39.1668H9.35186C7.09261 39.1668 4.92589 38.2693 3.32836 36.6718C1.73083 35.0743 0.833344 32.9076 0.833344 30.6483V9.35201C0.833344 7.09276 1.73083 4.92604 3.32836 3.32851C4.92589 1.73098 7.09261 0.833496 9.35186 0.833496H30.6482C32.9074 0.833496 35.0741 1.73098 36.6717 3.32851C38.2692 4.92604 39.1667 7.09276 39.1667 9.35201Z" stroke="#355DFA" stroke-width="1.5" stroke-linecap="round" stroke-linejoin="round"/>
<path d="M9.35187 28.5185V20M9.35187 20V11.4814H13.6111C14.7408 11.4814 15.8241 11.9302 16.6229 12.729C17.4216 13.5277 17.8704 14.6111 17.8704 15.7407C17.8704 16.8703 17.4216 17.9537 16.6229 18.7525C15.8241 19.5512 14.7408 20 13.6111 20H9.35187ZM30.6482 17.8703C29.9965 16.5649 28.6612 15.7407 27.2024 15.7407H26.3889C25.5417 15.7407 24.7292 16.0773 24.1301 16.6763C23.531 17.2754 23.1945 18.0879 23.1945 18.9351C23.1945 19.7824 23.531 20.5949 24.1301 21.194C24.7292 21.793 25.5417 22.1296 26.3889 22.1296H27.4537C28.3009 22.1296 29.1135 22.4661 29.7125 23.0652C30.3116 23.6643 30.6482 24.4768 30.6482 25.324C30.6482 26.1713 30.3116 26.9838 29.7125 27.5829C29.1135 28.1819 28.3009 28.5185 27.4537 28.5185H26.6402C25.9248 28.5182 25.2236 28.3189 24.615 27.9428C24.0065 27.5667 23.5146 27.0286 23.1945 26.3889" stroke="#355DFA" stroke-width="1.5" stroke-linecap="round" stroke-linejoin="round"/>
</g>
<defs>
<clipPath id="clip0_147_20">
<rect width="40" height="40" fill="white"/>
</clipPath>
</defs>
</svg>
