<svg width="46" height="46" viewBox="0 0 46 46" fill="none" xmlns="http://www.w3.org/2000/svg">
<path d="M12.9375 31.625C12.9375 32.7687 13.3919 33.8656 14.2006 34.6744C15.0094 35.4831 16.1063 35.9375 17.25 35.9375C18.3937 35.9375 19.4906 35.4831 20.2994 34.6744C21.1081 33.8656 21.5625 32.7687 21.5625 31.625V21.5625M35.9375 25.1562C35.9375 23.1725 34.3936 21.5625 32.4875 21.5625H30.7625C28.8564 21.5625 27.3125 23.1725 27.3125 25.1562C27.3125 27.14 28.8564 28.75 30.7625 28.75H32.4875C34.3936 28.75 35.9375 30.36 35.9375 32.3438C35.9375 34.3275 34.3936 35.9375 32.4875 35.9375H30.7625C28.8564 35.9375 27.3125 34.3275 27.3125 32.3438" stroke="#355DFA" stroke-width="1.5" stroke-linecap="round" stroke-linejoin="round"/>
<path d="M11.5 4.3125H34.5C38.4819 4.3125 41.6875 7.51813 41.6875 11.5V34.5C41.6875 38.4819 38.4819 41.6875 34.5 41.6875H11.5C10.5556 41.6894 9.62012 41.5048 8.74724 41.1442C7.87435 40.7837 7.08126 40.2544 6.41346 39.5866C5.74566 38.9188 5.21631 38.1257 4.85577 37.2528C4.49524 36.3799 4.31062 35.4444 4.31251 34.5V11.5C4.31251 7.51813 7.51814 4.3125 11.5 4.3125Z" stroke="#355DFA" stroke-width="1.5" stroke-linecap="round" stroke-linejoin="round"/>
</svg>
