<svg width="39" height="40" viewBox="0 0 39 40" fill="none" xmlns="http://www.w3.org/2000/svg">
<g clip-path="url(#clip0_147_32)">
<path d="M37.6767 4.52419L31.7798 34.1755C31.6654 34.7504 31.3905 35.2814 30.9867 35.707C30.5829 36.1327 30.0668 36.4357 29.4978 36.5812L21.049 38.7465C20.0328 39.0069 18.9672 39.0069 17.951 38.7465L9.5001 36.5812C8.93218 36.4352 8.4171 36.1322 8.01413 35.707C7.61117 35.2817 7.3367 34.7516 7.22231 34.1776L1.32329 4.52419C1.23367 4.07357 1.24527 3.60872 1.35725 3.16311C1.46923 2.7175 1.67881 2.3022 1.97091 1.9471C2.263 1.59201 2.63035 1.30595 3.0465 1.10951C3.46266 0.913064 3.91729 0.811128 4.37765 0.811035H34.6223C35.0827 0.811128 35.5373 0.913064 35.9535 1.10951C36.3696 1.30595 36.737 1.59201 37.0291 1.9471C37.3212 2.3022 37.5308 2.7175 37.6427 3.16311C37.7547 3.60872 37.7663 4.07357 37.6767 4.52419Z" stroke="#355DFA" stroke-width="1.5" stroke-linecap="round" stroke-linejoin="round"/>
<path d="M29.8819 8.85254H10.638C10.4535 8.85232 10.2712 8.893 10.1044 8.97164C9.93755 9.05028 9.79031 9.16492 9.67328 9.30727C9.55626 9.44963 9.47239 9.61615 9.42772 9.79479C9.38305 9.97344 9.3787 10.1598 9.41499 10.3403L11.1986 19.2336H27.8014L25.9513 28.4709C25.8813 28.8202 25.7222 29.1456 25.4894 29.4156C25.2567 29.6856 24.9581 29.8912 24.6225 30.0125L20.2081 31.608C19.7512 31.7731 19.2509 31.7731 18.794 31.608L14.3776 30.0125C14.0419 29.8912 13.7433 29.6856 13.5106 29.4156C13.2778 29.1456 13.1187 28.8202 13.0487 28.4709L12.5836 26.1523" stroke="#355DFA" stroke-width="1.5" stroke-linecap="round" stroke-linejoin="round"/>
</g>
<defs>
<clipPath id="clip0_147_32">
<rect width="39" height="40" fill="white"/>
</clipPath>
</defs>
</svg>
