<svg width="46" height="46" viewBox="0 0 46 46" fill="none" xmlns="http://www.w3.org/2000/svg">
<g clip-path="url(#clip0_5_68)">
<mask id="mask0_5_68" style="mask-type:luminance" maskUnits="userSpaceOnUse" x="0" y="0" width="46" height="46">
<path d="M23 46C35.7025 46 46 35.7025 46 23C46 10.2975 35.7025 0 23 0C10.2975 0 0 10.2975 0 23C0 35.7025 10.2975 46 23 46Z" fill="white"/>
</mask>
<g mask="url(#mask0_5_68)">
<path d="M23 0H46V5.75L43.125 8.625L46 11.5V17.25L43.125 20.125L46 23V28.75L43.125 31.625L46 34.5V40.25L23 43.125L0 40.25V34.5L2.875 31.625L0 28.75V23L23 0Z" fill="#EEEEEE"/>
<path d="M20.125 5.75H46V11.5H20.125V5.75ZM20.125 17.25H46V23H23L20.125 17.25ZM0 28.75H46V34.5H0V28.75ZM0 40.25H46V46H0V40.25Z" fill="#D80027"/>
<path d="M0 0H23V23H0V0Z" fill="#0052B4"/>
<path d="M16.8008 21.832L21.9219 18.1484H15.6328L20.7539 21.832L18.7773 15.8125L16.8008 21.832ZM9.52344 21.832L14.6445 18.1484H8.35547L13.4766 21.832L11.5 15.8125L9.52344 21.832ZM2.24609 21.832L7.36719 18.1484H1.07812L6.19922 21.832L4.22266 15.8125L2.24609 21.832ZM16.8008 14.5547L21.9219 10.8711H15.6328L20.7539 14.5547L18.7773 8.53516L16.8008 14.5547ZM9.52344 14.5547L14.6445 10.8711H8.35547L13.4766 14.5547L11.5 8.53516L9.52344 14.5547ZM2.24609 14.5547L7.36719 10.8711H1.07812L6.19922 14.5547L4.22266 8.53516L2.24609 14.5547ZM16.8008 7.1875L21.9219 3.50391H15.6328L20.7539 7.1875L18.7773 1.16797L16.8008 7.1875ZM9.52344 7.1875L14.6445 3.50391H8.35547L13.4766 7.1875L11.5 1.16797L9.52344 7.1875ZM2.24609 7.1875L7.36719 3.50391H1.07812L6.19922 7.1875L4.22266 1.16797L2.24609 7.1875Z" fill="#EEEEEE"/>
</g>
</g>
<defs>
<clipPath id="clip0_5_68">
<rect width="46" height="46" fill="white"/>
</clipPath>
</defs>
</svg>
