<svg width="46" height="46" viewBox="0 0 46 46" fill="none" xmlns="http://www.w3.org/2000/svg">
<path opacity="0.5" d="M23 3.8335H16.6117C14.9172 3.8335 13.2921 4.50664 12.0939 5.70485C10.8957 6.90306 10.2225 8.52818 10.2225 10.2227C10.2225 11.9172 10.8957 13.5423 12.0939 14.7406C13.2921 15.9388 14.9172 16.6119 16.6117 16.6119H23V3.8335Z" stroke="#355DFA" stroke-width="1.5"/>
<path d="M23 16.6118H16.6117C14.9175 16.6118 13.2926 17.2849 12.0946 18.4829C10.8965 19.6809 10.2235 21.3058 10.2235 23.0001C10.2235 24.6943 10.8965 26.3192 12.0946 27.5172C13.2926 28.7153 14.9175 29.3883 16.6117 29.3883H23V16.6118Z" stroke="#355DFA" stroke-width="1.5"/>
<path opacity="0.5" d="M35.7784 23C35.7784 24.6946 35.1053 26.3197 33.907 27.5179C32.7088 28.7161 31.0837 29.3893 29.3892 29.3893C27.6947 29.3893 26.0695 28.7161 24.8713 27.5179C23.6731 26.3197 23 24.6946 23 23C23 21.3055 23.6731 19.6804 24.8713 18.4822C26.0695 17.284 27.6947 16.6108 29.3892 16.6108C31.0837 16.6108 32.7088 17.284 33.907 18.4822C35.1053 19.6804 35.7784 21.3055 35.7784 23ZM16.6117 29.3902H23V35.7785C22.9996 37.0419 22.6246 38.2768 21.9224 39.3271C21.2203 40.3774 20.2224 41.1959 19.0551 41.6791C17.8877 42.1623 16.6033 42.2885 15.3643 42.0418C14.1252 41.7951 12.9871 41.1865 12.0939 40.293C11.2007 39.3996 10.5924 38.2613 10.3461 37.0221C10.0998 35.783 10.2264 34.4986 10.7099 33.3314C11.1935 32.1642 12.0123 31.1666 13.0628 30.4648C14.1133 29.7629 15.3483 29.3902 16.6117 29.3902Z" stroke="#355DFA" stroke-width="1.5"/>
<path d="M23 3.8335H29.3883C31.0828 3.8335 32.7079 4.50664 33.9061 5.70485C35.1043 6.90306 35.7775 8.52818 35.7775 10.2227C35.7775 11.9172 35.1043 13.5423 33.9061 14.7406C32.7079 15.9388 31.0828 16.6119 29.3883 16.6119H23V3.8335Z" stroke="#355DFA" stroke-width="1.5"/>
</svg>
