<svg width="24" height="24" viewBox="0 0 24 24" fill="none" xmlns="http://www.w3.org/2000/svg">
<path d="M12 1.84961C18.023 1.84961 23.1504 5.82546 23.1504 11C23.1504 16.1745 18.023 20.1504 12 20.1504C11.5444 20.1504 11.0955 20.1269 10.6533 20.083L5.8418 23.0527C5.62466 23.1868 5.34841 23.1815 5.13672 23.0391C4.92525 22.8966 4.817 22.6431 4.85938 22.3916L5.52246 18.4502C2.73393 16.8166 0.849609 14.1167 0.849609 11C0.849609 5.82546 5.97703 1.84961 12 1.84961Z" stroke="#355DFA" stroke-width="1.3" stroke-linejoin="round"/>
<path d="M4.5 9H7.5M6 13.5V9M8 13.5L9.75 9L11.5 13.5M8.5 12.5H11M13 9V13.5H15M16.5 9V13.5M16.5 12L19.5 9M17.5 11L19.5 13.5" stroke="#355DFA" stroke-width="1.3" stroke-linecap="round" stroke-linejoin="round"/>
</svg>
