<svg width="29" height="24" viewBox="0 0 29 24" fill="none" xmlns="http://www.w3.org/2000/svg">
<path d="M21.8418 3.84961C22.7197 3.84961 23.5615 4.20359 24.1816 4.83203C24.8018 5.46043 25.1504 6.31236 25.1504 7.2002V16.7998C25.1504 17.6876 24.8018 18.5396 24.1816 19.168C23.5615 19.7964 22.7197 20.1504 21.8418 20.1504H8.1582C7.28026 20.1504 6.43855 19.7964 5.81836 19.168C5.19823 18.5396 4.84961 17.6876 4.84961 16.7998V7.2002C4.84961 6.31236 5.19823 5.46043 5.81836 4.83203C6.43855 4.20359 7.28026 3.84961 8.1582 3.84961H21.8418ZM15.082 12.3496L15 12.4033L14.918 12.3496L6.27344 6.66699C6.22863 6.83756 6.20215 7.01949 6.20215 7.2002V16.7998C6.20215 17.3265 6.40946 17.8313 6.77637 18.2031C7.14319 18.5747 7.64036 18.7832 8.1582 18.7832H21.8418C22.3596 18.7832 22.8568 18.5747 23.2236 18.2031C23.5905 17.8313 23.7979 17.3265 23.7979 16.7998V7.2002C23.7979 7.01941 23.7704 6.83763 23.7256 6.66699L15.082 12.3496ZM8.1582 5.2168C7.74177 5.2168 7.37076 5.33847 7.06641 5.55566L15 10.7529L22.9326 5.55566C22.6284 5.33876 22.2579 5.2168 21.8418 5.2168H8.1582Z" fill="#355DFA" stroke="#355DFA" stroke-width="0.3"/>
</svg>
