<svg width="46" height="46" viewBox="0 0 46 46" fill="none" xmlns="http://www.w3.org/2000/svg">
<path d="M23 44.5625C34.9086 44.5625 44.5625 34.9086 44.5625 23C44.5625 11.0914 34.9086 1.4375 23 1.4375C11.0914 1.4375 1.4375 11.0914 1.4375 23C1.4375 34.9086 11.0914 44.5625 23 44.5625Z" fill="#F5F5F5"/>
<path d="M16.8187 24.2219C18.8312 25.5875 21.6344 25.0125 23 23C24.3656 20.9875 27.0969 20.4125 29.1812 21.7781C31.1219 23.0719 31.6969 25.5875 30.6187 27.5281C32.9906 23.5031 31.9125 18.2562 27.8875 15.5969C23.7906 12.8656 18.2562 13.9437 15.525 18.0406C15.4531 18.1844 15.3812 18.3281 15.3094 18.4C14.3031 20.4844 14.95 22.9281 16.8187 24.2219Z" fill="#ED4C5C"/>
<path d="M29.1812 21.7781C27.1687 20.4125 24.3656 20.9875 23 23C21.6343 25.0125 18.9031 25.5875 16.8187 24.2219C14.8781 22.9281 14.3031 20.4125 15.3812 18.4719C12.9375 22.4969 14.0875 27.7437 18.1125 30.4031C22.2093 33.1344 27.7437 32.0562 30.475 27.9594C30.5468 27.8156 30.6187 27.6719 30.6906 27.6C31.6968 25.5156 31.05 23.0719 29.1812 21.7781Z" fill="#428BC1"/>
<path d="M5.60623 16.7469L10.5656 9.34377L10.0625 8.9844L9.55935 8.6969L4.59998 16.1L5.1031 16.3875L5.60623 16.7469ZM6.97185 17.6813L7.47498 17.9688L12.3625 10.5656L11.9312 10.2781L11.4281 9.91877L6.46873 17.3219L6.97185 17.6813ZM13.225 11.1406L8.33748 18.5438L8.8406 18.9031L9.34373 19.1906L14.2312 11.7875L13.7281 11.5L13.225 11.1406ZM34.8594 30.5469L35.3625 30.9063L37.6625 27.4563L37.1594 27.0969L36.6562 26.8094L34.3562 30.2594L34.8594 30.5469ZM40.3937 29.2531L38.0937 32.7031L38.5969 33.0625L39.1 33.35L41.4 29.9L40.8969 29.6125L40.3937 29.2531ZM37.2312 32.1281L39.5312 28.6781L39.0281 28.3188L38.525 28.0313L36.225 31.4813L36.7281 31.7688L37.2312 32.1281ZM34.5718 31.05L34.0687 30.7625L31.7687 34.2125L32.2719 34.5L32.775 34.8594L35.075 31.4094L34.5718 31.05ZM36.3687 32.2719L35.9375 31.9844L33.6375 35.4344L34.0687 35.7219L34.5718 36.0813L36.8718 32.6313L36.3687 32.2719ZM37.7343 33.2063L35.4343 36.6563L35.9375 37.0156L36.4406 37.3032L38.7406 33.8531L38.2375 33.4938L37.7343 33.2063ZM5.1031 29.6125L4.59998 29.9L9.55935 37.3032L10.0625 37.0156L10.5656 36.6563L5.60623 29.2531L5.1031 29.6125ZM9.63123 32.2719L9.1281 32.6313L11.4281 36.0813L11.9312 35.7219L12.3625 35.4344L10.0625 31.9844L9.63123 32.2719ZM8.8406 27.0969L8.33748 27.4563L13.225 34.8594L13.7281 34.5L14.2312 34.2125L9.34373 26.8094L8.8406 27.0969ZM6.46873 28.6781L8.76873 32.1281L9.27185 31.7688L9.77498 31.4813L7.47498 28.0313L6.97185 28.3188L6.46873 28.6781ZM38.2375 12.5063L38.7406 12.1469L36.4406 8.6969L35.9375 8.9844L35.4343 9.34377L37.7343 12.7938L38.2375 12.5063ZM34.5718 14.95L35.075 14.5906L32.775 11.1406L32.2719 11.5L31.7687 11.7875L34.0687 15.2375L34.5718 14.95ZM38.0937 13.2969L40.3937 16.7469L40.8969 16.3875L41.4 16.1L39.1 12.65L38.5969 12.9375L38.0937 13.2969ZM39.0281 17.6813L39.5312 17.3219L34.5718 9.91877L34.0687 10.2781L33.6375 10.5656L38.525 17.9688L39.0281 17.6813ZM37.1594 18.9031L37.6625 18.5438L35.3625 15.0938L34.8594 15.4531L34.3562 15.7406L36.6562 19.1906L37.1594 18.9031Z" fill="#3E4347"/>
</svg>
