<svg width="224" height="224" viewBox="0 0 224 224" fill="none" xmlns="http://www.w3.org/2000/svg">
<g clip-path="url(#clip0_109_113)">
<path d="M52.1313 113.55C52.2201 112.914 52.2635 112.272 52.2613 111.63C52.2618 110.998 52.2217 110.367 52.1413 109.74H55.1413V113.55H52.1313ZM37.6413 118.06C36.3696 118.06 35.1264 117.683 34.069 116.976C33.0116 116.27 32.1874 115.266 31.7008 114.091C31.2141 112.916 31.0868 111.623 31.3349 110.376C31.583 109.128 32.1953 107.983 33.0946 107.083C33.9939 106.184 35.1396 105.572 36.3869 105.324C37.6342 105.075 38.927 105.203 40.102 105.689C41.2769 106.176 42.2811 107 42.9877 108.058C43.6942 109.115 44.0713 110.358 44.0713 111.63C44.0713 113.335 43.3939 114.971 42.188 116.177C40.9821 117.383 39.3466 118.06 37.6413 118.06ZM59.3813 97.06C58.2462 97.06 57.1575 97.511 56.3549 98.3136C55.5522 99.1163 55.1013 100.205 55.1013 101.34V102.34H48.9113C46.9934 100.017 44.4053 98.3431 41.5003 97.5462C38.5954 96.7494 35.5153 96.8686 32.6807 97.8876C29.8461 98.9067 27.3951 100.776 25.6624 103.24C23.9298 105.704 23 108.643 23 111.655C23 114.667 23.9298 117.606 25.6624 120.07C27.3951 122.534 29.8461 124.403 32.6807 125.422C35.5153 126.441 38.5954 126.561 41.5003 125.764C44.4053 124.967 46.9934 123.293 48.9113 120.97H55.1013V126.28H63.6713V101.28C63.6713 100.717 63.5603 100.16 63.3445 99.6398C63.1288 99.1199 62.8127 98.6476 62.4142 98.25C62.0157 97.8525 61.5427 97.5374 61.0223 97.3229C60.5018 97.1084 59.9442 96.9987 59.3813 97" fill="#FF4752"/>
<path d="M82.5785 97.005H70.1685C69.5883 96.977 69.0086 97.067 68.4643 97.2697C67.92 97.4724 67.4225 97.7835 67.002 98.1842C66.5815 98.5848 66.2468 99.0667 66.0181 99.6005C65.7893 100.134 65.6714 100.709 65.6714 101.29C65.6714 101.871 65.7893 102.446 66.0181 102.979C66.2468 103.513 66.5815 103.995 67.002 104.396C67.4225 104.797 67.92 105.108 68.4643 105.31C69.0086 105.513 69.5883 105.603 70.1685 105.575H78.7384C79.1929 105.575 79.6289 105.755 79.9512 106.075C80.2734 106.396 80.4558 106.831 80.4585 107.285V126.285H89.0585V103.455C89.0598 102.608 88.8938 101.768 88.5702 100.985C88.2465 100.202 87.7714 99.4904 87.1722 98.8912C86.573 98.292 85.8615 97.817 85.0783 97.4933C84.2952 97.1696 83.4559 97.0037 82.6085 97.005" fill="#FF4752"/>
<path d="M95.3384 97.0049C94.2033 97.0049 93.1147 97.4558 92.312 98.2585C91.5094 99.0611 91.0583 100.15 91.0583 101.285V126.285H99.6284V101.285C99.6284 100.722 99.5174 100.165 99.3017 99.6447C99.086 99.1248 98.7698 98.6525 98.3713 98.2549C97.9728 97.8574 97.4998 97.5423 96.9794 97.3278C96.459 97.1133 95.9013 97.0036 95.3384 97.0049Z" fill="#FF4752"/>
<path d="M116.26 118.042C114.989 118.04 113.747 117.661 112.691 116.953C111.634 116.246 110.812 115.241 110.327 114.066C109.842 112.891 109.716 111.598 109.965 110.351C110.214 109.105 110.827 107.96 111.727 107.062C112.627 106.163 113.772 105.552 115.019 105.305C116.266 105.058 117.559 105.185 118.733 105.672C119.907 106.159 120.911 106.983 121.617 108.041C122.323 109.098 122.7 110.341 122.7 111.612C122.7 112.457 122.533 113.294 122.21 114.075C121.886 114.856 121.411 115.565 120.813 116.162C120.215 116.759 119.505 117.233 118.724 117.555C117.943 117.878 117.105 118.043 116.26 118.042ZM137.2 97.042C136.065 97.042 134.976 97.4929 134.174 98.2956C133.371 99.0982 132.92 100.187 132.92 101.322V107.582H130.31C129.334 104.216 127.183 101.312 124.247 99.3982C121.311 97.4846 117.785 96.6886 114.312 97.1549C110.838 97.6213 107.647 99.3192 105.32 101.94C102.993 104.56 101.683 107.929 101.63 111.433C101.577 114.937 102.784 118.344 105.03 121.034C107.277 123.724 110.415 125.517 113.873 126.089C117.33 126.661 120.878 125.972 123.871 124.148C126.864 122.324 129.103 119.487 130.18 116.152H132.92V126.282H141.49V101.282C141.49 100.719 141.379 100.162 141.163 99.6418C140.948 99.1219 140.631 98.6496 140.233 98.252C139.834 97.8545 139.361 97.5394 138.841 97.3249C138.321 97.1104 137.763 97.0006 137.2 97.002" fill="#FF4752"/>
<path d="M152.12 107.335C152.12 107.109 152.164 106.885 152.251 106.677C152.337 106.468 152.464 106.278 152.624 106.119C152.783 105.959 152.973 105.832 153.182 105.746C153.39 105.659 153.614 105.615 153.84 105.615H156.57V117.695H153.84C153.387 117.695 152.953 117.517 152.631 117.198C152.309 116.88 152.125 116.448 152.12 115.995V107.335ZM143.53 103.485V119.835C143.53 121.546 144.21 123.186 145.419 124.396C146.629 125.605 148.269 126.285 149.98 126.285H166.55V117.695H164.25V105.595H166.55V97.0249H149.94C149.093 97.0236 148.255 97.1892 147.472 97.5123C146.69 97.8353 145.979 98.3095 145.38 98.9076C144.781 99.5058 144.305 100.216 143.981 100.998C143.657 101.78 143.49 102.618 143.49 103.465" fill="#FF4752"/>
<path d="M178.55 97.0552C175.898 97.0552 173.354 98.1088 171.479 99.9841C169.604 101.859 168.55 104.403 168.55 107.055V126.265H177.12V107.075C177.12 106.691 177.273 106.322 177.545 106.05C177.817 105.778 178.185 105.625 178.57 105.625C178.955 105.625 179.323 105.778 179.595 106.05C179.867 106.322 180.02 106.691 180.02 107.075V126.285H188.59V107.075C188.59 104.423 187.536 101.879 185.661 100.004C183.786 98.1288 181.242 97.0752 178.59 97.0752" fill="#FF4752"/>
<path d="M194.92 117.625C194.064 117.625 193.227 117.879 192.514 118.355C191.802 118.831 191.247 119.507 190.92 120.298C190.592 121.089 190.506 121.96 190.673 122.8C190.84 123.64 191.253 124.411 191.858 125.017C192.464 125.622 193.235 126.035 194.075 126.202C194.915 126.369 195.786 126.283 196.577 125.955C197.368 125.628 198.045 125.073 198.52 124.361C198.996 123.649 199.25 122.811 199.25 121.955C199.25 120.807 198.794 119.705 197.982 118.893C197.17 118.081 196.068 117.625 194.92 117.625Z" fill="#FF4752"/>
</g>
<defs>
<clipPath id="clip0_109_113">
<rect width="177" height="30" fill="white" transform="translate(23 97)"/>
</clipPath>
</defs>
</svg>
